<mxfile host="65bd71144e">
    <diagram id="C-PjmeCGkAlcpk9YQ1E-" name="Page-1">
        <mxGraphModel dx="513" dy="386" grid="1" gridSize="10" guides="1" tooltips="1" connect="1" arrows="1" fold="1" page="1" pageScale="1" pageWidth="1100" pageHeight="850" math="0" shadow="0">
            <root>
                <mxCell id="0"/>
                <mxCell id="1" parent="0"/>
                <mxCell id="49" value="" style="whiteSpace=wrap;html=1;labelBackgroundColor=none;strokeColor=none;fontSize=8;fontColor=#FF8000;fillColor=#E6E6E6;" vertex="1" parent="1">
                    <mxGeometry x="803.5" y="252" width="113" height="112" as="geometry"/>
                </mxCell>
                <mxCell id="48" value="" style="whiteSpace=wrap;html=1;labelBackgroundColor=none;strokeColor=none;fontSize=8;fontColor=#FF8000;fillColor=#E6E6E6;" vertex="1" parent="1">
                    <mxGeometry x="802" y="462" width="113" height="112" as="geometry"/>
                </mxCell>
                <mxCell id="47" value="" style="whiteSpace=wrap;html=1;labelBackgroundColor=none;strokeColor=none;fontSize=8;fontColor=#FF8000;fillColor=#E6E6E6;" vertex="1" parent="1">
                    <mxGeometry x="632" y="362" width="84" height="112" as="geometry"/>
                </mxCell>
                <mxCell id="9" value="&lt;b style=&quot;border-color: var(--border-color);&quot;&gt;Hub&lt;br style=&quot;border-color: var(--border-color);&quot;&gt;10.0.0.0/24&lt;/b&gt;" style="whiteSpace=wrap;html=1;fillColor=none;strokeColor=#0066CC;dashed=1;labelPosition=center;verticalLabelPosition=top;align=center;verticalAlign=bottom;" vertex="1" parent="1">
                    <mxGeometry x="530" y="358" width="190" height="120" as="geometry"/>
                </mxCell>
                <mxCell id="46" value="" style="whiteSpace=wrap;html=1;labelBackgroundColor=none;strokeColor=none;fontSize=8;fontColor=#FF8000;fillColor=#E6E6E6;" vertex="1" parent="1">
                    <mxGeometry x="534" y="362" width="95" height="112" as="geometry"/>
                </mxCell>
                <mxCell id="2" value="&lt;b&gt;On-Premises&amp;nbsp;&lt;br&gt;(emulated in Azure)&lt;br&gt;192.168.100.0/24&lt;/b&gt;" style="whiteSpace=wrap;html=1;fillColor=#eeeeee;strokeColor=#36393d;dashed=1;labelPosition=center;verticalLabelPosition=top;align=center;verticalAlign=bottom;" vertex="1" parent="1">
                    <mxGeometry x="60" y="348" width="196.38" height="130" as="geometry"/>
                </mxCell>
                <mxCell id="39" style="edgeStyle=none;html=1;entryX=0.077;entryY=0.493;entryDx=0;entryDy=0;entryPerimeter=0;dashed=1;endArrow=none;endFill=0;strokeColor=#FF8000;" edge="1" parent="1" source="12" target="38">
                    <mxGeometry relative="1" as="geometry"/>
                </mxCell>
                <mxCell id="11" value="Onprem-vm1" style="aspect=fixed;html=1;points=[];align=center;image;fontSize=12;image=img/lib/azure2/compute/Virtual_Machine.svg;labelBackgroundColor=none;" vertex="1" parent="1">
                    <mxGeometry x="86.871834625323" y="383" width="43.13" height="40" as="geometry"/>
                </mxCell>
                <mxCell id="12" value="Onprem-NVA&lt;br&gt;&lt;font color=&quot;#ff8000&quot; style=&quot;font-size: 8px;&quot;&gt;&lt;b&gt;ZT-SDWAN&lt;/b&gt;&lt;/font&gt;" style="aspect=fixed;html=1;points=[];align=center;image;fontSize=12;image=img/lib/azure2/compute/Virtual_Machine.svg;labelBackgroundColor=none;" vertex="1" parent="1">
                    <mxGeometry x="176.8669250645995" y="383" width="43.13" height="40" as="geometry"/>
                </mxCell>
                <mxCell id="26" value="&lt;b style=&quot;border-color: var(--border-color);&quot;&gt;Spoke1&lt;br style=&quot;border-color: var(--border-color);&quot;&gt;10.0.1.0/24&lt;/b&gt;" style="whiteSpace=wrap;html=1;fillColor=none;strokeColor=#0066CC;dashed=1;labelPosition=center;verticalLabelPosition=top;align=center;verticalAlign=bottom;" vertex="1" parent="1">
                    <mxGeometry x="800" y="248" width="120" height="120" as="geometry"/>
                </mxCell>
                <mxCell id="27" value="" style="aspect=fixed;html=1;points=[];align=center;image;fontSize=12;image=img/lib/azure2/networking/Virtual_Networks.svg;dashed=1;" vertex="1" parent="1">
                    <mxGeometry x="896.55" y="252" width="23.45" height="14" as="geometry"/>
                </mxCell>
                <mxCell id="28" value="spk1-vm1&lt;br&gt;.4" style="aspect=fixed;html=1;points=[];align=center;image;fontSize=12;image=img/lib/azure2/compute/Virtual_Machine.svg;labelBackgroundColor=none;" vertex="1" parent="1">
                    <mxGeometry x="838.44" y="276" width="43.13" height="40" as="geometry"/>
                </mxCell>
                <mxCell id="37" value="" style="edgeStyle=none;html=1;exitX=0;exitY=0.5;exitDx=0;exitDy=0;endArrow=none;endFill=0;dashed=1;fontSize=8;strokeColor=#0066CC;" edge="1" parent="1" source="30">
                    <mxGeometry x="-0.1304" y="-7" relative="1" as="geometry">
                        <mxPoint x="720" y="418" as="targetPoint"/>
                        <mxPoint as="offset"/>
                    </mxGeometry>
                </mxCell>
                <mxCell id="30" value="&lt;b style=&quot;border-color: var(--border-color);&quot;&gt;Spoke2&lt;br style=&quot;border-color: var(--border-color);&quot;&gt;10.0.2.0/24&lt;/b&gt;" style="whiteSpace=wrap;html=1;fillColor=none;strokeColor=#0066CC;dashed=1;labelPosition=center;verticalLabelPosition=top;align=center;verticalAlign=bottom;" vertex="1" parent="1">
                    <mxGeometry x="798.25" y="458" width="121.75" height="120" as="geometry"/>
                </mxCell>
                <mxCell id="31" value="" style="aspect=fixed;html=1;points=[];align=center;image;fontSize=12;image=img/lib/azure2/networking/Virtual_Networks.svg;dashed=1;" vertex="1" parent="1">
                    <mxGeometry x="893.05" y="462" width="23.45" height="14" as="geometry"/>
                </mxCell>
                <mxCell id="32" value="spk2-vm1&lt;br&gt;.4" style="aspect=fixed;html=1;points=[];align=center;image;fontSize=12;image=img/lib/azure2/compute/Virtual_Machine.svg;labelBackgroundColor=none;" vertex="1" parent="1">
                    <mxGeometry x="837.56" y="486" width="43.13" height="40" as="geometry"/>
                </mxCell>
                <mxCell id="36" style="edgeStyle=none;html=1;exitX=1;exitY=0.5;exitDx=0;exitDy=0;entryX=0;entryY=0.5;entryDx=0;entryDy=0;endArrow=none;endFill=0;dashed=1;strokeColor=#0066CC;" edge="1" parent="1" source="9" target="26">
                    <mxGeometry relative="1" as="geometry"/>
                </mxCell>
                <mxCell id="56" value="VNET Peering" style="edgeLabel;html=1;align=center;verticalAlign=middle;resizable=0;points=[];fontSize=8;fontColor=#000000;rotation=-55;" vertex="1" connectable="0" parent="36">
                    <mxGeometry relative="1" as="geometry">
                        <mxPoint x="-10" y="-5" as="offset"/>
                    </mxGeometry>
                </mxCell>
                <mxCell id="40" style="edgeStyle=none;html=1;entryX=0.852;entryY=0.507;entryDx=0;entryDy=0;entryPerimeter=0;dashed=1;endArrow=none;endFill=0;strokeColor=#FF8000;" edge="1" parent="1" source="14" target="38">
                    <mxGeometry relative="1" as="geometry"/>
                </mxCell>
                <mxCell id="10" value="" style="aspect=fixed;html=1;points=[];align=center;image;fontSize=12;image=img/lib/azure2/networking/Virtual_Networks.svg;dashed=1;" vertex="1" parent="1">
                    <mxGeometry x="690" y="348" width="33.5" height="20" as="geometry"/>
                </mxCell>
                <mxCell id="14" value="&lt;font style=&quot;&quot;&gt;Hub-NVA&lt;br&gt;.20&lt;br&gt;&lt;font color=&quot;#ff8000&quot; style=&quot;font-size: 8px;&quot;&gt;&lt;b&gt;ZT-SDWAN&lt;/b&gt;&lt;/font&gt;&lt;/font&gt;" style="aspect=fixed;html=1;points=[];align=center;image;fontSize=12;image=img/lib/azure2/compute/Virtual_Machine.svg;labelBackgroundColor=none;" vertex="1" parent="1">
                    <mxGeometry x="558.44" y="383" width="43.13" height="40" as="geometry"/>
                </mxCell>
                <mxCell id="13" value="Hub-vm1&lt;br&gt;.4" style="aspect=fixed;html=1;points=[];align=center;image;fontSize=12;image=img/lib/azure2/compute/Virtual_Machine.svg;labelBackgroundColor=none;" vertex="1" parent="1">
                    <mxGeometry x="646.87" y="384" width="43.13" height="40" as="geometry"/>
                </mxCell>
                <mxCell id="38" value="Zero-Tier SD-WAN&lt;br&gt;100.64.0.0/24" style="html=1;verticalLabelPosition=middle;align=center;labelBackgroundColor=#ffffff;verticalAlign=middle;strokeWidth=2;strokeColor=#FF8000;shadow=0;dashed=0;shape=mxgraph.ios7.icons.cloud;fontColor=#FF8000;labelPosition=center;spacing=0;spacingTop=35;" vertex="1" parent="1">
                    <mxGeometry x="310" y="359" width="150" height="90" as="geometry"/>
                </mxCell>
                <mxCell id="51" value="Subnet1" style="text;strokeColor=none;align=center;fillColor=none;html=1;verticalAlign=middle;whiteSpace=wrap;rounded=0;labelBackgroundColor=none;fontSize=8;fontColor=#000000;" vertex="1" parent="1">
                    <mxGeometry x="798.25" y="248" width="60" height="30" as="geometry"/>
                </mxCell>
                <mxCell id="52" value="Subnet1" style="text;strokeColor=none;align=center;fillColor=none;html=1;verticalAlign=middle;whiteSpace=wrap;rounded=0;labelBackgroundColor=none;fontSize=8;fontColor=#000000;" vertex="1" parent="1">
                    <mxGeometry x="798.25" y="458" width="60" height="30" as="geometry"/>
                </mxCell>
                <mxCell id="53" value="Subnet1" style="text;strokeColor=none;align=center;fillColor=none;html=1;verticalAlign=middle;whiteSpace=wrap;rounded=0;labelBackgroundColor=none;fontSize=8;fontColor=#000000;" vertex="1" parent="1">
                    <mxGeometry x="620" y="354" width="60" height="30" as="geometry"/>
                </mxCell>
                <mxCell id="54" value="NVASubnet" style="text;strokeColor=none;align=center;fillColor=none;html=1;verticalAlign=middle;whiteSpace=wrap;rounded=0;labelBackgroundColor=none;fontSize=8;fontColor=#000000;" vertex="1" parent="1">
                    <mxGeometry x="530" y="354" width="60" height="30" as="geometry"/>
                </mxCell>
                <mxCell id="59" value="VNET Peering" style="edgeLabel;html=1;align=center;verticalAlign=middle;resizable=0;points=[];fontSize=8;fontColor=#000000;rotation=52.2;" vertex="1" connectable="0" parent="1">
                    <mxGeometry x="828.2456754419031" y="477.99594626738326" as="geometry">
                        <mxPoint x="-49.80342426067819" y="42.19738062855195" as="offset"/>
                    </mxGeometry>
                </mxCell>
            </root>
        </mxGraphModel>
    </diagram>
</mxfile>